<svg xmlns="http://www.w3.org/2000/svg" viewBox="0 0 400 400">
  <defs>
    <linearGradient id="g1" x1="0%" y1="0%" x2="100%" y2="100%">
      <stop offset="0%" stop-color="#6366f1"/>
      <stop offset="100%" stop-color="#a855f7"/>
    </linearGradient>
    <linearGradient id="g2" x1="100%" y1="0%" x2="0%" y2="100%">
      <stop offset="0%" stop-color="#a855f7"/>
      <stop offset="100%" stop-color="#6366f1"/>
    </linearGradient>
  </defs>
  <rect width="400" height="400" rx="80" fill="url(#g1)"/>
  <g transform="translate(200,200)">
    <path d="M-60,-80 C-20,-100 20,-100 60,-80 L80,-20 C100,20 80,60 40,80 L-40,80 C-80,60 -100,20 -80,-20 Z"
          fill="none" stroke="white" stroke-width="6" opacity="0.3"/>
    <path d="M-45,-60 C-15,-75 15,-75 45,-60 L60,-15 C75,15 60,45 30,60 L-30,60 C-60,45 -75,15 -60,-15 Z"
          fill="none" stroke="white" stroke-width="5" opacity="0.6"/>
    <path d="M-30,-40 C-10,-50 10,-50 30,-40 L40,-10 C50,10 40,30 20,40 L-20,40 C-40,30 -50,10 -40,-10 Z"
          fill="none" stroke="white" stroke-width="4"/>
    <circle cx="0" cy="0" r="12" fill="white" opacity="0.9"/>
    <circle cx="0" cy="0" r="4" fill="#6366f1"/>
    <g transform="translate(65,-70)">
      <circle cx="0" cy="0" r="8" fill="white" opacity="0.8"/>
      <circle cx="0" cy="0" r="3" fill="#a855f7"/>
    </g>
    <g transform="translate(-65,-70)">
      <circle cx="0" cy="0" r="6" fill="white" opacity="0.6"/>
    </g>
    <g transform="translate(70,55)">
      <circle cx="0" cy="0" r="5" fill="white" opacity="0.5"/>
    </g>
    <g transform="translate(-55,65)">
      <circle cx="0" cy="0" r="7" fill="white" opacity="0.7"/>
    </g>
  </g>
</svg>
